<mxfile host="app.diagrams.net" agent="Mozilla/5.0 (Macintosh; Intel Mac OS X 10_15_7) AppleWebKit/605.1.15 (KHTML, like Gecko) Version/17.6 Safari/605.1.15" version="26.2.6">
  <diagram name="Page-1" id="2YBvvXClWsGukQMizWep">
    <mxGraphModel dx="978" dy="-429" grid="1" gridSize="10" guides="1" tooltips="1" connect="1" arrows="1" fold="1" page="1" pageScale="1" pageWidth="850" pageHeight="1100" math="0" shadow="0">
      <root>
        <mxCell id="0" />
        <mxCell id="1" parent="0" />
        <mxCell id="mWeFcGI8tAbBwMgsGRlw-103" value="" style="html=1;points=[[0,0,0,0,5],[0,1,0,0,-5],[1,0,0,0,5],[1,1,0,0,-5]];perimeter=orthogonalPerimeter;outlineConnect=0;targetShapes=umlLifeline;portConstraint=eastwest;newEdgeStyle={&quot;curved&quot;:0,&quot;rounded&quot;:0};" parent="1" vertex="1">
          <mxGeometry x="505" y="2150" width="10" height="60" as="geometry" />
        </mxCell>
        <mxCell id="mWeFcGI8tAbBwMgsGRlw-88" value="" style="html=1;points=[[0,0,0,0,5],[0,1,0,0,-5],[1,0,0,0,5],[1,1,0,0,-5]];perimeter=orthogonalPerimeter;outlineConnect=0;targetShapes=umlLifeline;portConstraint=eastwest;newEdgeStyle={&quot;curved&quot;:0,&quot;rounded&quot;:0};" parent="1" vertex="1">
          <mxGeometry x="375" y="2130" width="10" height="100" as="geometry" />
        </mxCell>
        <mxCell id="mWeFcGI8tAbBwMgsGRlw-29" value="" style="html=1;points=[[0,0,0,0,5],[0,1,0,0,-5],[1,0,0,0,5],[1,1,0,0,-5]];perimeter=orthogonalPerimeter;outlineConnect=0;targetShapes=umlLifeline;portConstraint=eastwest;newEdgeStyle={&quot;curved&quot;:0,&quot;rounded&quot;:0};" parent="1" vertex="1">
          <mxGeometry x="740" y="1800" width="10" height="50" as="geometry" />
        </mxCell>
        <mxCell id="mWeFcGI8tAbBwMgsGRlw-38" value="" style="html=1;points=[[0,0,0,0,5],[0,1,0,0,-5],[1,0,0,0,5],[1,1,0,0,-5]];perimeter=orthogonalPerimeter;outlineConnect=0;targetShapes=umlLifeline;portConstraint=eastwest;newEdgeStyle={&quot;curved&quot;:0,&quot;rounded&quot;:0};" parent="1" vertex="1">
          <mxGeometry x="615" y="1790" width="10" height="80" as="geometry" />
        </mxCell>
        <mxCell id="mWeFcGI8tAbBwMgsGRlw-11" value="Actor" style="shape=umlActor;verticalLabelPosition=bottom;verticalAlign=top;html=1;outlineConnect=0;" parent="1" vertex="1">
          <mxGeometry x="47.5" y="1640" width="30" height="60" as="geometry" />
        </mxCell>
        <mxCell id="mWeFcGI8tAbBwMgsGRlw-12" value="nginx proxy" style="rounded=0;whiteSpace=wrap;html=1;" parent="1" vertex="1">
          <mxGeometry x="140" y="1650" width="120" height="60" as="geometry" />
        </mxCell>
        <mxCell id="mWeFcGI8tAbBwMgsGRlw-13" value="auth service" style="rounded=0;whiteSpace=wrap;html=1;" parent="1" vertex="1">
          <mxGeometry x="320" y="1650" width="120" height="60" as="geometry" />
        </mxCell>
        <mxCell id="mWeFcGI8tAbBwMgsGRlw-14" value="backend shop service" style="rounded=0;whiteSpace=wrap;html=1;" parent="1" vertex="1">
          <mxGeometry x="565" y="1640" width="120" height="60" as="geometry" />
        </mxCell>
        <mxCell id="mWeFcGI8tAbBwMgsGRlw-16" value="Data Base" style="shape=cylinder3;whiteSpace=wrap;html=1;boundedLbl=1;backgroundOutline=1;size=15;" parent="1" vertex="1">
          <mxGeometry x="715" y="1640" width="60" height="80" as="geometry" />
        </mxCell>
        <mxCell id="mWeFcGI8tAbBwMgsGRlw-17" value="" style="endArrow=none;dashed=1;html=1;dashPattern=1 3;strokeWidth=2;rounded=0;" parent="1" source="mWeFcGI8tAbBwMgsGRlw-23" edge="1">
          <mxGeometry width="50" height="50" relative="1" as="geometry">
            <mxPoint x="60" y="2650" as="sourcePoint" />
            <mxPoint x="60" y="1730" as="targetPoint" />
          </mxGeometry>
        </mxCell>
        <mxCell id="mWeFcGI8tAbBwMgsGRlw-18" value="" style="endArrow=none;dashed=1;html=1;dashPattern=1 3;strokeWidth=2;rounded=0;" parent="1" source="mWeFcGI8tAbBwMgsGRlw-36" edge="1">
          <mxGeometry width="50" height="50" relative="1" as="geometry">
            <mxPoint x="199.5" y="2650" as="sourcePoint" />
            <mxPoint x="200" y="1720" as="targetPoint" />
          </mxGeometry>
        </mxCell>
        <mxCell id="mWeFcGI8tAbBwMgsGRlw-20" value="" style="endArrow=none;dashed=1;html=1;dashPattern=1 3;strokeWidth=2;rounded=0;" parent="1" source="mWeFcGI8tAbBwMgsGRlw-38" edge="1">
          <mxGeometry width="50" height="50" relative="1" as="geometry">
            <mxPoint x="619.5" y="2650" as="sourcePoint" />
            <mxPoint x="620" y="1710" as="targetPoint" />
          </mxGeometry>
        </mxCell>
        <mxCell id="mWeFcGI8tAbBwMgsGRlw-22" value="" style="endArrow=none;dashed=1;html=1;dashPattern=1 3;strokeWidth=2;rounded=0;" parent="1" source="mWeFcGI8tAbBwMgsGRlw-29" edge="1">
          <mxGeometry width="50" height="50" relative="1" as="geometry">
            <mxPoint x="709.5" y="2650" as="sourcePoint" />
            <mxPoint x="745" y="1730" as="targetPoint" />
          </mxGeometry>
        </mxCell>
        <mxCell id="mWeFcGI8tAbBwMgsGRlw-24" value="" style="endArrow=none;dashed=1;html=1;dashPattern=1 3;strokeWidth=2;rounded=0;" parent="1" source="mWeFcGI8tAbBwMgsGRlw-49" target="mWeFcGI8tAbBwMgsGRlw-23" edge="1">
          <mxGeometry width="50" height="50" relative="1" as="geometry">
            <mxPoint x="60" y="2650" as="sourcePoint" />
            <mxPoint x="60" y="1730" as="targetPoint" />
          </mxGeometry>
        </mxCell>
        <mxCell id="mWeFcGI8tAbBwMgsGRlw-23" value="" style="html=1;points=[[0,0,0,0,5],[0,1,0,0,-5],[1,0,0,0,5],[1,1,0,0,-5]];perimeter=orthogonalPerimeter;outlineConnect=0;targetShapes=umlLifeline;portConstraint=eastwest;newEdgeStyle={&quot;curved&quot;:0,&quot;rounded&quot;:0};" parent="1" vertex="1">
          <mxGeometry x="54.38" y="1770" width="10" height="110" as="geometry" />
        </mxCell>
        <mxCell id="mWeFcGI8tAbBwMgsGRlw-25" value="" style="endArrow=classic;html=1;rounded=0;" parent="1" edge="1">
          <mxGeometry width="50" height="50" relative="1" as="geometry">
            <mxPoint x="64.38" y="1770" as="sourcePoint" />
            <mxPoint x="200" y="1770" as="targetPoint" />
          </mxGeometry>
        </mxCell>
        <mxCell id="mWeFcGI8tAbBwMgsGRlw-27" value="" style="endArrow=classic;html=1;rounded=0;" parent="1" target="mWeFcGI8tAbBwMgsGRlw-38" edge="1">
          <mxGeometry width="50" height="50" relative="1" as="geometry">
            <mxPoint x="200" y="1790" as="sourcePoint" />
            <mxPoint x="610" y="1790" as="targetPoint" />
          </mxGeometry>
        </mxCell>
        <mxCell id="mWeFcGI8tAbBwMgsGRlw-28" value="" style="endArrow=classic;html=1;rounded=0;" parent="1" source="mWeFcGI8tAbBwMgsGRlw-38" edge="1">
          <mxGeometry width="50" height="50" relative="1" as="geometry">
            <mxPoint x="640" y="1800" as="sourcePoint" />
            <mxPoint x="750" y="1800" as="targetPoint" />
          </mxGeometry>
        </mxCell>
        <mxCell id="mWeFcGI8tAbBwMgsGRlw-30" value="" style="endArrow=none;dashed=1;html=1;dashPattern=1 3;strokeWidth=2;rounded=0;" parent="1" source="mWeFcGI8tAbBwMgsGRlw-63" target="mWeFcGI8tAbBwMgsGRlw-29" edge="1">
          <mxGeometry width="50" height="50" relative="1" as="geometry">
            <mxPoint x="744.5" y="2650" as="sourcePoint" />
            <mxPoint x="744.5" y="1730" as="targetPoint" />
          </mxGeometry>
        </mxCell>
        <mxCell id="mWeFcGI8tAbBwMgsGRlw-32" value="" style="endArrow=block;dashed=1;endFill=0;endSize=12;html=1;rounded=0;" parent="1" source="mWeFcGI8tAbBwMgsGRlw-29" target="mWeFcGI8tAbBwMgsGRlw-38" edge="1">
          <mxGeometry width="160" relative="1" as="geometry">
            <mxPoint x="705" y="1850" as="sourcePoint" />
            <mxPoint x="540" y="1850" as="targetPoint" />
            <Array as="points">
              <mxPoint x="690" y="1850" />
            </Array>
          </mxGeometry>
        </mxCell>
        <mxCell id="mWeFcGI8tAbBwMgsGRlw-33" value="" style="endArrow=block;dashed=1;endFill=0;endSize=12;html=1;rounded=0;" parent="1" target="mWeFcGI8tAbBwMgsGRlw-36" edge="1">
          <mxGeometry width="160" relative="1" as="geometry">
            <mxPoint x="620" y="1870" as="sourcePoint" />
            <mxPoint x="200" y="1870" as="targetPoint" />
          </mxGeometry>
        </mxCell>
        <mxCell id="mWeFcGI8tAbBwMgsGRlw-37" value="" style="endArrow=none;dashed=1;html=1;dashPattern=1 3;strokeWidth=2;rounded=0;" parent="1" source="mWeFcGI8tAbBwMgsGRlw-59" target="mWeFcGI8tAbBwMgsGRlw-36" edge="1">
          <mxGeometry width="50" height="50" relative="1" as="geometry">
            <mxPoint x="199.5" y="2650" as="sourcePoint" />
            <mxPoint x="199.5" y="1730" as="targetPoint" />
          </mxGeometry>
        </mxCell>
        <mxCell id="mWeFcGI8tAbBwMgsGRlw-36" value="" style="html=1;points=[[0,0,0,0,5],[0,1,0,0,-5],[1,0,0,0,5],[1,1,0,0,-5]];perimeter=orthogonalPerimeter;outlineConnect=0;targetShapes=umlLifeline;portConstraint=eastwest;newEdgeStyle={&quot;curved&quot;:0,&quot;rounded&quot;:0};" parent="1" vertex="1">
          <mxGeometry x="195" y="1770" width="10" height="110" as="geometry" />
        </mxCell>
        <mxCell id="mWeFcGI8tAbBwMgsGRlw-39" value="" style="endArrow=none;dashed=1;html=1;dashPattern=1 3;strokeWidth=2;rounded=0;" parent="1" source="mWeFcGI8tAbBwMgsGRlw-61" target="mWeFcGI8tAbBwMgsGRlw-38" edge="1">
          <mxGeometry width="50" height="50" relative="1" as="geometry">
            <mxPoint x="619.5" y="2650" as="sourcePoint" />
            <mxPoint x="619.5" y="1730" as="targetPoint" />
          </mxGeometry>
        </mxCell>
        <mxCell id="mWeFcGI8tAbBwMgsGRlw-44" value="sql запрос" style="text;html=1;align=center;verticalAlign=middle;whiteSpace=wrap;rounded=0;" parent="1" vertex="1">
          <mxGeometry x="650" y="1770" width="60" height="30" as="geometry" />
        </mxCell>
        <mxCell id="mWeFcGI8tAbBwMgsGRlw-45" value="Список витрины" style="text;html=1;align=center;verticalAlign=middle;whiteSpace=wrap;rounded=0;" parent="1" vertex="1">
          <mxGeometry x="637.5" y="1810" width="102.5" height="50" as="geometry" />
        </mxCell>
        <mxCell id="mWeFcGI8tAbBwMgsGRlw-47" value="" style="endArrow=none;dashed=1;html=1;dashPattern=1 3;strokeWidth=2;rounded=0;" parent="1" source="mWeFcGI8tAbBwMgsGRlw-88" edge="1">
          <mxGeometry width="50" height="50" relative="1" as="geometry">
            <mxPoint x="380" y="2390" as="sourcePoint" />
            <mxPoint x="380" y="1720" as="targetPoint" />
          </mxGeometry>
        </mxCell>
        <mxCell id="mWeFcGI8tAbBwMgsGRlw-50" value="" style="endArrow=none;dashed=1;html=1;dashPattern=1 3;strokeWidth=2;rounded=0;" parent="1" source="mWeFcGI8tAbBwMgsGRlw-76" target="mWeFcGI8tAbBwMgsGRlw-49" edge="1">
          <mxGeometry width="50" height="50" relative="1" as="geometry">
            <mxPoint x="60" y="2650" as="sourcePoint" />
            <mxPoint x="60" y="1870" as="targetPoint" />
          </mxGeometry>
        </mxCell>
        <mxCell id="mWeFcGI8tAbBwMgsGRlw-49" value="" style="html=1;points=[[0,0,0,0,5],[0,1,0,0,-5],[1,0,0,0,5],[1,1,0,0,-5]];perimeter=orthogonalPerimeter;outlineConnect=0;targetShapes=umlLifeline;portConstraint=eastwest;newEdgeStyle={&quot;curved&quot;:0,&quot;rounded&quot;:0};" parent="1" vertex="1">
          <mxGeometry x="54.38" y="1960" width="10" height="100" as="geometry" />
        </mxCell>
        <mxCell id="mWeFcGI8tAbBwMgsGRlw-54" value="" style="endArrow=block;dashed=1;endFill=0;endSize=12;html=1;rounded=0;" parent="1" edge="1">
          <mxGeometry width="160" relative="1" as="geometry">
            <mxPoint x="618" y="2055" as="sourcePoint" />
            <mxPoint x="202.5" y="2055" as="targetPoint" />
          </mxGeometry>
        </mxCell>
        <mxCell id="mWeFcGI8tAbBwMgsGRlw-55" value="" style="endArrow=block;dashed=1;endFill=0;endSize=12;html=1;rounded=0;entryX=0.5;entryY=0.75;entryDx=0;entryDy=0;entryPerimeter=0;" parent="1" source="mWeFcGI8tAbBwMgsGRlw-63" target="mWeFcGI8tAbBwMgsGRlw-61" edge="1">
          <mxGeometry width="160" relative="1" as="geometry">
            <mxPoint x="710" y="2030" as="sourcePoint" />
            <mxPoint x="530" y="2030" as="targetPoint" />
          </mxGeometry>
        </mxCell>
        <mxCell id="mWeFcGI8tAbBwMgsGRlw-56" value="" style="endArrow=block;dashed=1;endFill=0;endSize=12;html=1;rounded=0;" parent="1" edge="1">
          <mxGeometry width="160" relative="1" as="geometry">
            <mxPoint x="199.38" y="2060" as="sourcePoint" />
            <mxPoint x="60" y="2060" as="targetPoint" />
          </mxGeometry>
        </mxCell>
        <mxCell id="mWeFcGI8tAbBwMgsGRlw-57" value="" style="endArrow=block;dashed=1;endFill=0;endSize=12;html=1;rounded=0;" parent="1" edge="1">
          <mxGeometry width="160" relative="1" as="geometry">
            <mxPoint x="190" y="1880" as="sourcePoint" />
            <mxPoint x="60" y="1880" as="targetPoint" />
          </mxGeometry>
        </mxCell>
        <mxCell id="mWeFcGI8tAbBwMgsGRlw-58" value="HTTP пакет, response body={application/json}" style="text;html=1;align=center;verticalAlign=middle;whiteSpace=wrap;rounded=0;" parent="1" vertex="1">
          <mxGeometry x="68.76" y="1850" width="130" height="30" as="geometry" />
        </mxCell>
        <mxCell id="mWeFcGI8tAbBwMgsGRlw-60" value="" style="endArrow=none;dashed=1;html=1;dashPattern=1 3;strokeWidth=2;rounded=0;" parent="1" source="mWeFcGI8tAbBwMgsGRlw-90" target="mWeFcGI8tAbBwMgsGRlw-59" edge="1">
          <mxGeometry width="50" height="50" relative="1" as="geometry">
            <mxPoint x="199.5" y="2650" as="sourcePoint" />
            <mxPoint x="200" y="1880" as="targetPoint" />
          </mxGeometry>
        </mxCell>
        <mxCell id="mWeFcGI8tAbBwMgsGRlw-59" value="" style="html=1;points=[[0,0,0,0,5],[0,1,0,0,-5],[1,0,0,0,5],[1,1,0,0,-5]];perimeter=orthogonalPerimeter;outlineConnect=0;targetShapes=umlLifeline;portConstraint=eastwest;newEdgeStyle={&quot;curved&quot;:0,&quot;rounded&quot;:0};" parent="1" vertex="1">
          <mxGeometry x="195" y="1960" width="10" height="100" as="geometry" />
        </mxCell>
        <mxCell id="mWeFcGI8tAbBwMgsGRlw-62" value="" style="endArrow=none;dashed=1;html=1;dashPattern=1 3;strokeWidth=2;rounded=0;" parent="1" source="mWeFcGI8tAbBwMgsGRlw-98" target="mWeFcGI8tAbBwMgsGRlw-61" edge="1">
          <mxGeometry width="50" height="50" relative="1" as="geometry">
            <mxPoint x="619.5" y="2650" as="sourcePoint" />
            <mxPoint x="620" y="1860" as="targetPoint" />
          </mxGeometry>
        </mxCell>
        <mxCell id="mWeFcGI8tAbBwMgsGRlw-61" value="" style="html=1;points=[[0,0,0,0,5],[0,1,0,0,-5],[1,0,0,0,5],[1,1,0,0,-5]];perimeter=orthogonalPerimeter;outlineConnect=0;targetShapes=umlLifeline;portConstraint=eastwest;newEdgeStyle={&quot;curved&quot;:0,&quot;rounded&quot;:0};" parent="1" vertex="1">
          <mxGeometry x="615" y="1970" width="10" height="80" as="geometry" />
        </mxCell>
        <mxCell id="mWeFcGI8tAbBwMgsGRlw-64" value="" style="endArrow=none;dashed=1;html=1;dashPattern=1 3;strokeWidth=2;rounded=0;" parent="1" source="mWeFcGI8tAbBwMgsGRlw-96" target="mWeFcGI8tAbBwMgsGRlw-63" edge="1">
          <mxGeometry width="50" height="50" relative="1" as="geometry">
            <mxPoint x="744.5" y="2650" as="sourcePoint" />
            <mxPoint x="745" y="1850" as="targetPoint" />
          </mxGeometry>
        </mxCell>
        <mxCell id="mWeFcGI8tAbBwMgsGRlw-63" value="" style="html=1;points=[[0,0,0,0,5],[0,1,0,0,-5],[1,0,0,0,5],[1,1,0,0,-5]];perimeter=orthogonalPerimeter;outlineConnect=0;targetShapes=umlLifeline;portConstraint=eastwest;newEdgeStyle={&quot;curved&quot;:0,&quot;rounded&quot;:0};" parent="1" vertex="1">
          <mxGeometry x="740" y="1990" width="10" height="40" as="geometry" />
        </mxCell>
        <mxCell id="mWeFcGI8tAbBwMgsGRlw-53" value="" style="endArrow=classic;html=1;rounded=0;" parent="1" target="mWeFcGI8tAbBwMgsGRlw-63" edge="1">
          <mxGeometry width="50" height="50" relative="1" as="geometry">
            <mxPoint x="630" y="1990" as="sourcePoint" />
            <mxPoint x="710" y="1990" as="targetPoint" />
            <Array as="points">
              <mxPoint x="700" y="1990" />
            </Array>
          </mxGeometry>
        </mxCell>
        <mxCell id="mWeFcGI8tAbBwMgsGRlw-51" value="" style="endArrow=classic;html=1;rounded=0;" parent="1" edge="1">
          <mxGeometry width="50" height="50" relative="1" as="geometry">
            <mxPoint x="64.38" y="1960" as="sourcePoint" />
            <mxPoint x="200" y="1960" as="targetPoint" />
          </mxGeometry>
        </mxCell>
        <mxCell id="mWeFcGI8tAbBwMgsGRlw-65" value="GET&lt;div&gt;/products/{product_id}&lt;/div&gt;" style="text;html=1;align=center;verticalAlign=middle;whiteSpace=wrap;rounded=0;" parent="1" vertex="1">
          <mxGeometry x="92.5" y="1930" width="60" height="30" as="geometry" />
        </mxCell>
        <mxCell id="mWeFcGI8tAbBwMgsGRlw-67" value="GET&lt;div&gt;/products/{product_id}&lt;/div&gt;" style="text;html=1;align=center;verticalAlign=middle;whiteSpace=wrap;rounded=0;" parent="1" vertex="1">
          <mxGeometry x="280" y="1940" width="60" height="30" as="geometry" />
        </mxCell>
        <mxCell id="mWeFcGI8tAbBwMgsGRlw-71" value="sql запрос" style="text;html=1;align=center;verticalAlign=middle;whiteSpace=wrap;rounded=0;" parent="1" vertex="1">
          <mxGeometry x="650" y="1960" width="60" height="30" as="geometry" />
        </mxCell>
        <mxCell id="mWeFcGI8tAbBwMgsGRlw-72" value="Детальное описание товара" style="text;html=1;align=center;verticalAlign=middle;whiteSpace=wrap;rounded=0;" parent="1" vertex="1">
          <mxGeometry x="635" y="2000" width="115" height="40" as="geometry" />
        </mxCell>
        <mxCell id="mWeFcGI8tAbBwMgsGRlw-52" value="" style="endArrow=classic;html=1;rounded=0;" parent="1" source="mWeFcGI8tAbBwMgsGRlw-59" edge="1">
          <mxGeometry width="50" height="50" relative="1" as="geometry">
            <mxPoint x="210" y="1970" as="sourcePoint" />
            <mxPoint x="620" y="1970" as="targetPoint" />
          </mxGeometry>
        </mxCell>
        <mxCell id="mWeFcGI8tAbBwMgsGRlw-76" value="" style="html=1;points=[[0,0,0,0,5],[0,1,0,0,-5],[1,0,0,0,5],[1,1,0,0,-5]];perimeter=orthogonalPerimeter;outlineConnect=0;targetShapes=umlLifeline;portConstraint=eastwest;newEdgeStyle={&quot;curved&quot;:0,&quot;rounded&quot;:0};" parent="1" vertex="1">
          <mxGeometry x="54.38" y="2120" width="10" height="260" as="geometry" />
        </mxCell>
        <mxCell id="mWeFcGI8tAbBwMgsGRlw-79" value="" style="endArrow=classic;html=1;rounded=0;" parent="1" edge="1">
          <mxGeometry width="50" height="50" relative="1" as="geometry">
            <mxPoint x="64.38" y="2120" as="sourcePoint" />
            <mxPoint x="200" y="2120" as="targetPoint" />
          </mxGeometry>
        </mxCell>
        <mxCell id="mWeFcGI8tAbBwMgsGRlw-81" value="" style="endArrow=classic;html=1;rounded=0;" parent="1" edge="1">
          <mxGeometry width="50" height="50" relative="1" as="geometry">
            <mxPoint x="199.38" y="2130" as="sourcePoint" />
            <mxPoint x="380" y="2130" as="targetPoint" />
          </mxGeometry>
        </mxCell>
        <mxCell id="mWeFcGI8tAbBwMgsGRlw-82" value="" style="endArrow=classic;html=1;rounded=0;" parent="1" edge="1">
          <mxGeometry width="50" height="50" relative="1" as="geometry">
            <mxPoint x="390" y="2150" as="sourcePoint" />
            <mxPoint x="510" y="2150" as="targetPoint" />
          </mxGeometry>
        </mxCell>
        <mxCell id="mWeFcGI8tAbBwMgsGRlw-83" value="Кэш" style="shape=cylinder3;whiteSpace=wrap;html=1;boundedLbl=1;backgroundOutline=1;size=15;" parent="1" vertex="1">
          <mxGeometry x="485" y="1660" width="50" height="50" as="geometry" />
        </mxCell>
        <mxCell id="mWeFcGI8tAbBwMgsGRlw-86" value="" style="endArrow=block;dashed=1;endFill=0;endSize=12;html=1;rounded=0;" parent="1" edge="1">
          <mxGeometry width="160" relative="1" as="geometry">
            <mxPoint x="510" y="2210" as="sourcePoint" />
            <mxPoint x="390" y="2210" as="targetPoint" />
          </mxGeometry>
        </mxCell>
        <mxCell id="mWeFcGI8tAbBwMgsGRlw-87" value="" style="endArrow=block;dashed=1;endFill=0;endSize=12;html=1;rounded=0;" parent="1" edge="1">
          <mxGeometry width="160" relative="1" as="geometry">
            <mxPoint x="385" y="2228.82" as="sourcePoint" />
            <mxPoint x="205" y="2228.82" as="targetPoint" />
          </mxGeometry>
        </mxCell>
        <mxCell id="mWeFcGI8tAbBwMgsGRlw-90" value="" style="html=1;points=[[0,0,0,0,5],[0,1,0,0,-5],[1,0,0,0,5],[1,1,0,0,-5]];perimeter=orthogonalPerimeter;outlineConnect=0;targetShapes=umlLifeline;portConstraint=eastwest;newEdgeStyle={&quot;curved&quot;:0,&quot;rounded&quot;:0};" parent="1" vertex="1">
          <mxGeometry x="195" y="2120" width="10" height="260" as="geometry" />
        </mxCell>
        <mxCell id="mWeFcGI8tAbBwMgsGRlw-93" value="" style="endArrow=classic;html=1;rounded=0;" parent="1" edge="1">
          <mxGeometry width="50" height="50" relative="1" as="geometry">
            <mxPoint x="205" y="2270" as="sourcePoint" />
            <mxPoint x="615" y="2270" as="targetPoint" />
          </mxGeometry>
        </mxCell>
        <mxCell id="mWeFcGI8tAbBwMgsGRlw-94" value="" style="endArrow=classic;html=1;rounded=0;" parent="1" source="mWeFcGI8tAbBwMgsGRlw-98" edge="1">
          <mxGeometry width="50" height="50" relative="1" as="geometry">
            <mxPoint x="560" y="2300" as="sourcePoint" />
            <mxPoint x="740.62" y="2300" as="targetPoint" />
          </mxGeometry>
        </mxCell>
        <mxCell id="mWeFcGI8tAbBwMgsGRlw-95" value="" style="endArrow=block;dashed=1;endFill=0;endSize=12;html=1;rounded=0;" parent="1" target="mWeFcGI8tAbBwMgsGRlw-98" edge="1">
          <mxGeometry width="160" relative="1" as="geometry">
            <mxPoint x="745" y="2340" as="sourcePoint" />
            <mxPoint x="600" y="2340" as="targetPoint" />
          </mxGeometry>
        </mxCell>
        <mxCell id="mWeFcGI8tAbBwMgsGRlw-96" value="" style="html=1;points=[[0,0,0,0,5],[0,1,0,0,-5],[1,0,0,0,5],[1,1,0,0,-5]];perimeter=orthogonalPerimeter;outlineConnect=0;targetShapes=umlLifeline;portConstraint=eastwest;newEdgeStyle={&quot;curved&quot;:0,&quot;rounded&quot;:0};" parent="1" vertex="1">
          <mxGeometry x="740" y="2300" width="10" height="40" as="geometry" />
        </mxCell>
        <mxCell id="mWeFcGI8tAbBwMgsGRlw-98" value="" style="html=1;points=[[0,0,0,0,5],[0,1,0,0,-5],[1,0,0,0,5],[1,1,0,0,-5]];perimeter=orthogonalPerimeter;outlineConnect=0;targetShapes=umlLifeline;portConstraint=eastwest;newEdgeStyle={&quot;curved&quot;:0,&quot;rounded&quot;:0};" parent="1" vertex="1">
          <mxGeometry x="615" y="2270" width="10" height="90" as="geometry" />
        </mxCell>
        <mxCell id="mWeFcGI8tAbBwMgsGRlw-100" value="" style="endArrow=block;dashed=1;endFill=0;endSize=12;html=1;rounded=0;" parent="1" target="mWeFcGI8tAbBwMgsGRlw-90" edge="1">
          <mxGeometry width="160" relative="1" as="geometry">
            <mxPoint x="620" y="2360" as="sourcePoint" />
            <mxPoint x="350" y="2360" as="targetPoint" />
            <Array as="points">
              <mxPoint x="410" y="2360" />
            </Array>
          </mxGeometry>
        </mxCell>
        <mxCell id="mWeFcGI8tAbBwMgsGRlw-101" value="" style="endArrow=block;dashed=1;endFill=0;endSize=12;html=1;rounded=0;" parent="1" target="mWeFcGI8tAbBwMgsGRlw-76" edge="1">
          <mxGeometry width="160" relative="1" as="geometry">
            <mxPoint x="202.5" y="2380" as="sourcePoint" />
            <mxPoint x="70" y="2380" as="targetPoint" />
          </mxGeometry>
        </mxCell>
        <mxCell id="mWeFcGI8tAbBwMgsGRlw-102" value="" style="endArrow=none;dashed=1;html=1;dashPattern=1 3;strokeWidth=2;rounded=0;" parent="1" source="mWeFcGI8tAbBwMgsGRlw-103" edge="1">
          <mxGeometry width="50" height="50" relative="1" as="geometry">
            <mxPoint x="510" y="2651" as="sourcePoint" />
            <mxPoint x="509.5" y="1720" as="targetPoint" />
          </mxGeometry>
        </mxCell>
        <mxCell id="mWeFcGI8tAbBwMgsGRlw-105" value="GET&lt;div&gt;/products&lt;/div&gt;" style="text;html=1;align=center;verticalAlign=middle;whiteSpace=wrap;rounded=0;" parent="1" vertex="1">
          <mxGeometry x="95.63" y="1740" width="60" height="30" as="geometry" />
        </mxCell>
        <mxCell id="mWeFcGI8tAbBwMgsGRlw-106" value="GET&lt;div&gt;/products&lt;/div&gt;" style="text;html=1;align=center;verticalAlign=middle;whiteSpace=wrap;rounded=0;" parent="1" vertex="1">
          <mxGeometry x="385" y="1760" width="60" height="30" as="geometry" />
        </mxCell>
        <mxCell id="mWeFcGI8tAbBwMgsGRlw-108" value="верификация пользователя по token" style="text;html=1;align=center;verticalAlign=middle;whiteSpace=wrap;rounded=0;" parent="1" vertex="1">
          <mxGeometry x="215" y="2100" width="160" height="30" as="geometry" />
        </mxCell>
        <mxCell id="mWeFcGI8tAbBwMgsGRlw-109" value="token" style="text;html=1;align=center;verticalAlign=middle;whiteSpace=wrap;rounded=0;" parent="1" vertex="1">
          <mxGeometry x="420" y="2130" width="60" height="30" as="geometry" />
        </mxCell>
        <mxCell id="mWeFcGI8tAbBwMgsGRlw-110" value="ответ(пользователь найден)" style="text;html=1;align=center;verticalAlign=middle;whiteSpace=wrap;rounded=0;" parent="1" vertex="1">
          <mxGeometry x="395" y="2180" width="110" height="30" as="geometry" />
        </mxCell>
        <mxCell id="mWeFcGI8tAbBwMgsGRlw-111" value="ответ" style="text;html=1;align=center;verticalAlign=middle;whiteSpace=wrap;rounded=0;" parent="1" vertex="1">
          <mxGeometry x="260" y="2200" width="60" height="30" as="geometry" />
        </mxCell>
        <mxCell id="mWeFcGI8tAbBwMgsGRlw-127" value="sql запрос" style="text;html=1;align=center;verticalAlign=middle;whiteSpace=wrap;rounded=0;" parent="1" vertex="1">
          <mxGeometry x="650" y="2280" width="60" height="30" as="geometry" />
        </mxCell>
        <mxCell id="mWeFcGI8tAbBwMgsGRlw-129" value="HTTP пакет" style="text;html=1;align=center;verticalAlign=middle;whiteSpace=wrap;rounded=0;" parent="1" vertex="1">
          <mxGeometry x="358" y="2340" width="135" height="30" as="geometry" />
        </mxCell>
        <mxCell id="mWeFcGI8tAbBwMgsGRlw-130" value="HTTP пакет" style="text;html=1;align=center;verticalAlign=middle;whiteSpace=wrap;rounded=0;" parent="1" vertex="1">
          <mxGeometry x="95.63" y="2360" width="76.25" height="30" as="geometry" />
        </mxCell>
        <mxCell id="mWeFcGI8tAbBwMgsGRlw-132" value="post /carts,headers={&lt;span style=&quot;font-family: &amp;quot;.AppleSystemUIFontMonospaced&amp;quot;; font-size: 13px;&quot;&gt;&#39;Authorization&#39;&lt;/span&gt;&lt;span style=&quot;font-family: &amp;quot;.AppleSystemUIFontMonospaced&amp;quot;; font-size: 13px; color: rgb(172, 193, 216);&quot;&gt;:&lt;/span&gt;&lt;span style=&quot;font-family: &amp;quot;.AppleSystemUIFontMonospaced&amp;quot;; font-size: 13px;&quot;&gt; &#39;token&#39;&lt;/span&gt;},body={product_id,quantity}" style="text;html=1;align=center;verticalAlign=middle;whiteSpace=wrap;rounded=0;" parent="1" vertex="1">
          <mxGeometry x="30.00999999999999" y="2090" width="207.5" height="30" as="geometry" />
        </mxCell>
        <mxCell id="mWeFcGI8tAbBwMgsGRlw-133" value="HTTP пакет, response body={application/json}" style="text;html=1;align=center;verticalAlign=middle;whiteSpace=wrap;rounded=0;" parent="1" vertex="1">
          <mxGeometry x="65" y="2030" width="130" height="30" as="geometry" />
        </mxCell>
        <mxCell id="mWeFcGI8tAbBwMgsGRlw-134" value="HTTP пакет, response body={application/json}" style="text;html=1;align=center;verticalAlign=middle;whiteSpace=wrap;rounded=0;" parent="1" vertex="1">
          <mxGeometry x="330" y="1840" width="130" height="30" as="geometry" />
        </mxCell>
        <mxCell id="mWeFcGI8tAbBwMgsGRlw-135" value="HTTP пакет, response body={application/json}" style="text;html=1;align=center;verticalAlign=middle;whiteSpace=wrap;rounded=0;" parent="1" vertex="1">
          <mxGeometry x="385" y="2020" width="130" height="30" as="geometry" />
        </mxCell>
        <mxCell id="mWeFcGI8tAbBwMgsGRlw-137" value="Ответ(об успешной записи )" style="text;html=1;align=center;verticalAlign=middle;whiteSpace=wrap;rounded=0;" parent="1" vertex="1">
          <mxGeometry x="631.25" y="2320" width="115" height="30" as="geometry" />
        </mxCell>
      </root>
    </mxGraphModel>
  </diagram>
</mxfile>
